<?xml version="1.0" encoding="utf-8"?>
<!-- Generator: Adobe Illustrator 16.0.0, SVG Export Plug-In . SVG Version: 6.00 Build 0)  -->
<!DOCTYPE svg PUBLIC "-//W3C//DTD SVG 1.1//EN" "http://www.w3.org/Graphics/SVG/1.1/DTD/svg11.dtd">
<svg version="1.1" id="Layer_1" xmlns="http://www.w3.org/2000/svg" xmlns:xlink="http://www.w3.org/1999/xlink" x="0px" y="0px"
	 width="8691.555px" height="2675.464px" viewBox="-3600 -108.021 8691.555 2675.464"
	 enable-background="new -3600 -108.021 8691.555 2675.464" xml:space="preserve">
<title>all</title>
<g>
	<g>
		<g>
			<g>
				<g>
					<g>
						<g>
							<g>
								<g>
									<g>
										<g>
											<g>
												<g>
													<g>
														<g>
															<path d="M-2325.537,1209.19h-0.154c-15.135,0.037-27.375,12.525-27.338,27.893
																c0.036,15.368,12.335,27.797,27.47,27.76h0.099c15.019,0.124,27.292-12.138,27.415-27.388
																c0.001-0.139,0.001-0.277,0-0.416C-2298.099,1221.655-2310.386,1209.208-2325.537,1209.19z M-2325.47,1258.118
																h-0.066c-11.478,0.044-20.816-9.369-20.859-21.023c-0.043-11.654,9.227-21.137,20.705-21.181l0,0h0.121
																c11.478-0.031,20.807,9.392,20.837,21.046c0.031,11.654-9.249,21.128-20.727,21.158l0,0H-2325.47z"/>
															<path d="M-2268,1244.611c-0.395-6.494-0.791-12.989-1.192-19.485c-0.156-2.486-0.316-2.635-2.68-3.301
																c-3.565-1.004-7.13-2.019-10.628-3.077c-1.961-0.592-1.909-0.626-1.258-2.561c1.511-4.421,2.939-8.883,4.463-13.474
																c0.11-0.787-0.26-1.559-0.936-1.954c-5.268-4.183-10.523-8.383-15.769-12.6c-0.312-0.266-0.681-0.455-1.079-0.552
																c-0.599-0.111-1.218,0.034-1.711,0.401c-4.132,2.646-8.297,5.227-12.429,7.873c-0.476,0.474-1.238,0.47-1.703-0.009
																c-0.114-0.118-0.203-0.257-0.262-0.412c-2.898-4.494-5.852-8.942-8.776-13.419c-0.279-0.609-0.789-1.077-1.415-1.3
																c-0.467-0.062-0.942-0.019-1.393,0.126c-6.518,1.608-12.988,3.261-19.478,4.841c-1.007,0.176-1.74,1.07-1.726,2.105
																c-0.516,4.944-1.102,9.896-1.607,14.842c0.076,0.657-0.389,1.254-1.037,1.335c-0.173,0.021-0.348,0.004-0.513-0.051
																c-5.391-0.443-10.784-0.818-16.193-1.173c-0.963-0.165-1.906,0.397-2.237,1.332
																c-2.74,6.107-5.498,12.244-8.25,18.405c-0.677,1.528-0.575,1.951,0.566,3.101l10.25,10.124
																c0.937,0.899,0.892,1.107,0.04,2.083l-10.721,11.963c-1.065,1.182-1.118,1.64-0.392,3.044l9.172,17.791
																c0.201,0.635,0.691,1.132,1.317,1.336c0.396,0.065,0.801,0.062,1.197-0.008l14.123-2.02
																c0.418-0.089,0.845-0.113,1.269-0.073c0.454,0.098,0.549,0.496,0.716,1.506c0.855,5.18,1.733,10.364,2.529,15.555
																c0.045,1.2,0.931,2.19,2.104,2.353l0,0c6.399,1.369,12.789,2.736,19.188,4.106c1.673,0.358,2.058,0.142,2.914-1.382
																c2.481-4.42,4.973-8.838,7.431-13.309c0.153-0.539,0.675-0.883,1.222-0.805c0.208,0.051,0.407,0.132,0.592,0.241
																c4.54,2.519,9.094,4.972,13.653,7.506c0.473,0.29,0.983,0.515,1.516,0.668c0.734,0.157,1.223-0.174,2.242-1.091
																l14.57-13.179c1.106-1.001,1.209-1.483,0.624-2.915c-1.782-4.541-3.54-9.089-5.357-13.627
																c-0.362-0.584-0.187-1.36,0.392-1.731c0.136-0.087,0.287-0.147,0.444-0.175c4.881-2.13,9.74-4.322,14.608-6.501
																C-2268.218,1246.421-2267.916,1245.959-2268,1244.611z M-2275.402,1242.283c-3.745,1.674-7.616,3.413-11.425,5.073
																c-4.01,1.514-6.07,6.029-4.603,10.085c0.073,0.2,0.153,0.397,0.241,0.591c1.297,3.223,2.586,6.535,3.833,9.725
																l0.46,1.176l-10.554,9.604l-2.589-1.402c-2.963-1.608-6.07-3.282-9.002-4.929c-0.747-0.422-1.552-0.729-2.389-0.912
																c-3.388-0.719-6.842,0.978-8.4,4.127c-1.846,3.353-3.76,6.76-5.614,10.042l-0.384,0.686l-13.76-2.944
																c-0.472-3.069-0.946-6.128-1.488-9.132l-0.645-3.897c-0.797-4.869-3.608-6.502-5.842-6.98
																c-1.177-0.223-2.385-0.225-3.565-0.006l-4.657,0.665l-6.556,0.889l-6.531-12.675l3.776-4.2l5.081-5.652
																c3.273-3.643,3.161-8.021-0.288-11.418l-5.738-5.514l-2.599-2.573l1.037-2.368c1.598-3.562,3.188-7.13,4.773-10.702
																l2.877,0.215c3.334,0.243,6.823,0.497,10.218,0.776c4.234,0.53,8.112-2.524,8.661-6.821
																c0.021-0.161,0.036-0.322,0.047-0.484c0.258-2.523,0.537-5.042,0.816-7.561c0.159-1.41,0.314-2.821,0.465-4.232
																l8.345-2.076l5.439-1.369l0.436,0.655c2.249,3.415,4.563,6.947,6.797,10.428c2.187,3.705,6.933,4.892,10.6,2.652
																c0.141-0.086,0.279-0.177,0.415-0.272c2.04-1.305,4.085-2.602,6.137-3.89l3.767-2.357l11.064,8.843l-0.105,0.493
																c-1.06,3.211-2.08,6.294-3.138,9.391l-0.023,0.109c-0.983,2.23-0.964,4.777,0.053,6.979
																c1.181,2.13,3.221,3.629,5.588,4.107c2.971,0.888,6,1.765,8.768,2.541c0.26,4.731,0.528,9.487,0.807,14.269
																L-2275.402,1242.283z"/>
														</g>
													</g>
												</g>
											</g>
										</g>
									</g>
								</g>
							</g>
						</g>
					</g>
				</g>
			</g>
		</g>
	</g>
</g>
<g>
	<path fill="#777777" d="M-2185.863,1330.068l-23.622-23.622c-13.583-13.583-22.441-31.3-24.803-49.607
		c-1.181-9.449-6.496-17.716-14.173-23.622c-11.22-8.268-27.755-8.858-39.567-1.181c-1.181-7.678-4.724-15.354-10.629-21.26
		c-5.906-5.905-12.992-9.449-21.26-10.63c7.677-11.811,7.086-27.755-1.181-39.567c-5.906-7.677-14.173-12.992-23.623-14.173
		c-18.307-2.362-36.024-11.221-49.606-24.803l-23.623-23.623c-2.362-2.362-5.905-2.362-8.268,0l-39.567,38.386
		c-1.182,0.591-1.771,2.362-1.771,4.134c0,1.772,0.59,2.953,1.771,4.134l23.622,23.623c13.583,13.583,22.441,31.299,24.803,49.606
		c1.181,9.449,6.496,17.717,14.173,23.622c5.906,4.134,13.583,6.496,20.669,6.496l0,0c6.496,0,12.992-1.772,18.898-5.315
		c1.181,7.677,4.725,15.354,10.63,21.26c5.905,5.905,12.992,9.448,21.26,10.63c-7.678,11.811-7.087,27.756,1.181,39.567
		c5.905,7.677,14.173,12.992,23.622,14.173c18.307,2.362,36.024,11.221,49.607,24.803l23.622,23.622
		c1.181,1.182,2.362,1.771,4.134,1.771c1.772,0,2.953-0.59,4.134-1.771l38.977-38.976
		C-2183.501,1336.564-2183.501,1332.431-2185.863,1330.068z M-2361.848,1224.95c-1.771,2.953-4.134,5.315-6.496,7.677
		c-7.677,5.906-19.489,5.906-27.756,0c-5.315-4.134-8.859-9.448-9.449-15.945c-2.953-21.26-12.992-40.749-28.347-56.693
		l-19.489-19.488l30.119-30.118l19.488,19.488c15.354,15.354,35.433,25.394,56.693,28.347c6.496,0.591,11.811,4.134,15.945,9.449
		c5.905,8.268,5.905,19.488,0,27.756c-1.772,2.953-4.725,5.315-7.087,6.497C-2343.541,1203.1-2356.533,1209.596-2361.848,1224.95z
		 M-2344.131,1255.659c-13.583-14.173-5.315-28.937-4.725-29.528c15.244-25.798,37.315-12.291,41.929-7.677
		c13.583,14.764,5.315,28.937,4.724,29.527C-2304.565,1253.887-2322.281,1275.146-2344.131,1255.659z M-2228.974,1364.911
		l-19.488-19.488c-15.355-15.354-35.433-25.394-56.693-28.346c-6.496-0.591-11.811-4.134-15.945-9.449
		c-5.905-8.268-5.905-19.488,0-27.755c1.772-2.953,4.725-5.315,7.087-6.497c19.488-9.448,21.26-18.307,23.622-23.031
		c1.772-2.953,4.134-5.315,6.496-7.677c4.134-2.953,14.764-8.268,27.756,0c5.315,4.134,8.858,9.448,9.449,15.944
		c2.953,21.261,12.992,40.749,28.346,56.694l19.488,19.488L-2228.974,1364.911z"/>
</g>
<g>
	<path fill="#777777" d="M-2185.795,1329.846l-23.623-23.622c-13.582-13.583-22.44-31.299-24.803-49.606
		c-1.181-9.449-6.496-17.716-14.173-23.622c-11.221-8.268-27.756-8.858-39.568-1.181c-1.181-7.677-4.724-15.354-10.63-21.26
		c-5.905-5.905-12.992-9.449-21.26-10.63c7.678-11.812,7.087-27.756-1.181-39.567c-5.906-7.677-14.173-12.992-23.623-14.173
		c-18.307-2.362-36.024-11.22-49.606-24.803l-23.622-23.623c-2.362-2.362-5.906-2.362-8.268,0l-39.567,38.386
		c-1.181,0.591-1.771,2.362-1.771,4.134c0,1.772,0.591,2.953,1.771,4.134l23.623,23.622c13.583,13.583,22.441,31.3,24.803,49.607
		c1.181,9.449,6.496,17.716,14.173,23.622c5.905,4.134,13.583,6.496,20.669,6.496l0,0c6.496,0,12.993-1.771,18.898-5.314
		c1.181,7.677,4.725,15.354,10.63,21.26c5.905,5.905,12.992,9.449,21.26,10.63c-7.677,11.811-7.086,27.756,1.181,39.567
		c5.906,7.678,14.173,12.992,23.623,14.173c18.307,2.362,36.023,11.22,49.606,24.803l23.622,23.623
		c1.181,1.181,2.362,1.771,4.134,1.771s2.953-0.591,4.134-1.771l38.976-38.977
		C-2183.434,1336.342-2183.434,1332.208-2185.795,1329.846z M-2361.781,1224.728c-1.771,2.953-4.134,5.315-6.495,7.677
		c-7.678,5.906-19.489,5.906-27.756,0c-5.315-4.134-8.858-9.449-9.449-15.945c-2.953-21.26-12.992-40.748-28.346-56.693
		l-19.488-19.488l30.118-30.118l19.488,19.488c15.354,15.354,35.434,25.394,56.693,28.346c6.496,0.591,11.811,4.134,15.945,9.449
		c5.905,8.269,5.905,19.488,0,27.756c-1.772,2.953-4.725,5.315-7.086,6.496C-2343.473,1202.877-2356.465,1209.373-2361.781,1224.728
		z M-2344.064,1255.437c-13.583-14.173-5.314-28.938-4.725-29.528c15.245-25.798,37.315-12.292,41.93-7.677
		c13.582,14.764,5.314,28.938,4.724,29.527C-2304.497,1253.665-2322.213,1274.925-2344.064,1255.437z M-2228.906,1364.689
		l-19.488-19.489c-15.354-15.354-35.434-25.394-56.693-28.347c-6.496-0.59-11.811-4.134-15.945-9.449
		c-5.906-8.268-5.906-19.488,0-27.756c1.772-2.953,4.725-5.315,7.086-6.496c19.488-9.449,21.26-18.307,23.622-23.032
		c1.771-2.953,4.134-5.315,6.496-7.677c4.134-2.953,14.764-8.268,27.756,0c5.315,4.134,8.858,9.449,9.449,15.945
		c2.953,21.26,12.992,40.748,28.347,56.693l19.488,19.488L-2228.906,1364.689z"/>
</g>
<path fill="#FFFFFF" d="M-2361.781,1224.728c-1.771,2.953-4.134,5.315-6.495,7.677c-7.678,5.906-19.489,5.906-27.756,0
	c-5.315-4.134-8.858-9.449-9.449-15.945c-2.953-21.26-12.993-40.748-28.347-56.693l-19.488-19.488l30.118-30.118l19.488,19.488
	c15.354,15.354,35.434,25.394,56.693,28.346c6.496,0.591,11.811,4.134,15.945,9.449c5.905,8.269,5.905,19.488,0,27.756
	c-1.772,2.953-4.724,5.315-7.086,6.496C-2343.473,1202.877-2356.465,1209.373-2361.781,1224.728z"/>
<path fill="#FFFFFF" d="M-2228.906,1364.689l-19.488-19.489c-15.354-15.354-35.434-25.394-56.693-28.347
	c-6.496-0.59-11.811-4.134-15.945-9.449c-5.906-8.268-5.906-19.488,0-27.756c1.772-2.953,4.725-5.315,7.086-6.496
	c19.488-9.449,21.26-18.307,23.622-23.032c1.771-2.953,4.134-5.315,6.496-7.677c4.134-2.953,14.764-8.268,27.756,0
	c5.315,4.134,8.858,9.449,9.449,15.945c2.953,21.26,12.992,40.748,28.347,56.693l19.488,19.488L-2228.906,1364.689z"/>
<text transform="matrix(1 0 0 1 642.1753 1285.2852)" font-family="'MyriadPro-Regular'" font-size="12">ModExo</text>
<text transform="matrix(1 0 0 1 -2150.9883 1280.6162)" font-family="'MyanmarMN'" font-size="200">ModExo</text>
</svg>
