<?xml version="1.0" encoding="utf-8"?>
<!-- Generator: Adobe Illustrator 16.0.0, SVG Export Plug-In . SVG Version: 6.00 Build 0)  -->
<!DOCTYPE svg PUBLIC "-//W3C//DTD SVG 1.1//EN" "http://www.w3.org/Graphics/SVG/1.1/DTD/svg11.dtd">
<svg version="1.1" id="Layer_1" xmlns="http://www.w3.org/2000/svg" xmlns:xlink="http://www.w3.org/1999/xlink" x="0px" y="0px"
	 width="2728px" height="680px" viewBox="-2773.325 757.285 2728 680" enable-background="new -2773.325 757.285 2728 680"
	 xml:space="preserve">
<title>all</title>
<g>
	<g>
		<g>
			<g>
				<g>
					<g>
						<g>
							<g>
								<g>
									<g>
										<g>
											<g>
												<g>
													<g>
														<g>
															<path d="M-2419.249,1061.14h-0.309c-30.27,0.074-54.75,25.051-54.676,55.786c0.072,30.736,24.671,55.594,54.94,55.52
																h0.198c30.037,0.248,54.584-24.276,54.83-54.776c0.002-0.277,0.002-0.555,0-0.832
																C-2364.374,1086.07-2388.948,1061.177-2419.249,1061.14z M-2419.116,1158.996h-0.133
																c-22.955,0.088-41.633-18.738-41.718-42.047c-0.086-23.309,18.454-42.274,41.409-42.361l0,0h0.242
																c22.955-0.062,41.613,18.783,41.673,42.091c0.062,23.309-18.497,42.256-41.453,42.316l0,0H-2419.116z"/>
															<path d="M-2304.175,1131.982c-0.789-12.988-1.582-25.979-2.385-38.971c-0.312-4.972-0.633-5.269-5.359-6.601
																c-7.131-2.008-14.26-4.037-21.255-6.153c-3.923-1.184-3.817-1.253-2.516-5.122
																c3.021-8.843,5.879-17.767,8.926-26.947c0.221-1.573-0.52-3.118-1.872-3.908
																c-10.535-8.366-21.046-16.766-31.537-25.199c-0.625-0.531-1.362-0.91-2.157-1.104
																c-1.198-0.223-2.437,0.068-3.422,0.803c-8.265,5.291-16.594,10.454-24.858,15.745
																c-0.951,0.948-2.476,0.94-3.405-0.018c-0.228-0.235-0.405-0.515-0.523-0.823
																c-5.797-8.987-11.703-17.885-17.552-26.838c-0.558-1.219-1.578-2.154-2.83-2.6c-0.934-0.123-1.884-0.037-2.785,0.252
																c-13.035,3.217-25.977,6.521-38.955,9.682c-2.014,0.352-3.48,2.141-3.452,4.211
																c-1.032,9.888-2.203,19.791-3.214,29.684c0.151,1.313-0.778,2.509-2.074,2.67c-0.346,0.043-0.696,0.008-1.026-0.102
																c-10.781-0.887-21.568-1.636-32.387-2.347c-1.926-0.329-3.812,0.795-4.475,2.663
																c-5.48,12.214-10.996,24.488-16.501,36.811c-1.354,3.057-1.15,3.902,1.133,6.201l20.499,20.248
																c1.873,1.799,1.783,2.215,0.08,4.165l-21.442,23.927c-2.131,2.363-2.236,3.279-0.783,6.089l18.345,35.581
																c0.402,1.27,1.383,2.264,2.635,2.672c0.793,0.131,1.602,0.125,2.395-0.016l28.246-4.039
																c0.836-0.178,1.69-0.227,2.537-0.146c0.907,0.195,1.098,0.992,1.433,3.012c1.711,10.359,3.466,20.729,5.059,31.109
																c0.091,2.4,1.862,4.381,4.208,4.706l0,0c12.799,2.738,25.577,5.473,38.377,8.212
																c3.346,0.716,4.115,0.284,5.828-2.764c4.961-8.84,9.945-17.676,14.861-26.617c0.307-1.078,1.35-1.766,2.443-1.609
																c0.416,0.102,0.814,0.264,1.184,0.482c9.079,5.037,18.188,9.943,27.307,15.012c0.946,0.58,1.966,1.03,3.031,1.337
																c1.468,0.314,2.445-0.349,4.484-2.182l29.139-26.358c2.212-2.002,2.418-2.967,1.247-5.83
																c-3.564-9.082-7.08-18.179-10.713-27.254c-0.725-1.169-0.374-2.72,0.784-3.462c0.271-0.174,0.573-0.294,0.889-0.351
																c9.761-4.261,19.48-8.645,29.216-13.002C-2304.613,1135.603-2304.007,1134.678-2304.175,1131.982z
																 M-2318.98,1127.325c-7.49,3.349-15.231,6.826-22.849,10.146c-8.02,3.027-12.141,12.059-9.205,20.171
																c0.146,0.4,0.307,0.795,0.482,1.182c2.594,6.445,5.172,13.07,7.666,19.449l0.92,2.352l-21.107,19.207l-5.179-2.805
																c-5.926-3.217-12.14-6.564-18.004-9.857c-1.494-0.844-3.104-1.459-4.778-1.824c-6.776-1.438-13.684,1.955-16.8,8.254
																c-3.692,6.705-7.52,13.52-11.227,20.084l-0.768,1.371l-27.52-5.889c-0.944-6.139-1.893-12.256-2.977-18.264
																l-1.29-7.795c-1.595-9.738-7.217-13.004-11.685-13.961c-2.354-0.445-4.77-0.449-7.131-0.012l-9.314,1.33
																l-13.111,1.777l-13.062-25.35l7.553-8.399l10.162-11.304c6.547-7.285,6.322-16.043-0.576-22.837l-11.477-11.028
																l-5.197-5.146l2.074-4.736c3.195-7.124,6.377-14.26,9.547-21.404l5.754,0.43c6.668,0.486,13.646,0.994,20.436,1.553
																c8.469,1.06,16.224-5.049,17.321-13.643c0.041-0.322,0.072-0.645,0.094-0.968c0.516-5.047,1.074-10.084,1.633-15.122
																c0.317-2.819,0.628-5.642,0.931-8.465l16.69-4.152l10.879-2.738l0.871,1.311c4.498,6.83,9.126,13.895,13.594,20.855
																c4.373,7.41,13.865,9.784,21.199,5.305c0.281-0.173,0.559-0.354,0.83-0.545c4.08-2.61,8.171-5.204,12.273-7.779
																l7.533-4.715l22.129,17.686l-0.211,0.986c-2.119,6.423-4.16,12.588-6.276,18.782l-0.047,0.219
																c-1.966,4.46-1.928,9.555,0.106,13.958c2.362,4.26,6.441,7.258,11.176,8.213c5.941,1.776,11.999,3.53,17.535,5.082
																c0.52,9.462,1.057,18.975,1.613,28.538L-2318.98,1127.325z"/>
														</g>
													</g>
												</g>
											</g>
										</g>
									</g>
								</g>
							</g>
						</g>
					</g>
				</g>
			</g>
		</g>
	</g>
</g>
<g>
	<path fill="#777777" d="M-2139.903,1302.896l-47.244-47.243c-27.165-27.166-44.882-62.6-49.606-99.213
		c-2.362-18.897-12.991-35.433-28.347-47.244c-22.44-16.535-55.511-17.716-79.134-2.361c-2.362-15.355-9.448-30.708-21.259-42.52
		c-11.812-11.811-25.984-18.897-42.52-21.26c15.354-23.622,14.173-55.511-2.362-79.135c-11.812-15.354-28.347-25.984-47.245-28.345
		c-36.613-4.725-72.048-22.441-99.213-49.606l-47.245-47.245c-4.724-4.725-11.811-4.725-16.535,0l-79.133,76.771
		c-2.363,1.182-3.543,4.725-3.543,8.268c0,3.544,1.18,5.906,3.543,8.268l47.244,47.245c27.166,27.166,44.881,62.599,49.606,99.213
		c2.362,18.897,12.992,35.433,28.347,47.244c11.812,8.268,27.165,12.992,41.338,12.992l0,0c12.992,0,25.984-3.544,37.797-10.63
		c2.361,15.354,9.449,30.708,21.26,42.521c11.811,11.811,25.984,18.896,42.52,21.26c-15.355,23.622-14.174,55.512,2.362,79.133
		c11.811,15.354,28.346,25.984,47.244,28.346c36.614,4.725,72.047,22.441,99.213,49.606l47.243,47.244
		c2.361,2.363,4.725,3.543,8.268,3.543c3.544,0,5.905-1.18,8.268-3.543l77.953-77.952
		C-2135.178,1315.888-2135.178,1307.621-2139.903,1302.896z M-2491.872,1092.661c-3.543,5.905-8.268,10.629-12.992,15.353
		c-15.354,11.812-38.978,11.812-55.512,0c-10.63-8.268-17.718-18.896-18.897-31.889c-5.906-42.52-25.984-81.497-56.693-113.387
		l-38.977-38.976l60.237-60.236l38.977,38.977c30.708,30.709,70.866,50.788,113.386,56.693c12.992,1.182,23.622,8.268,31.891,18.897
		c11.811,16.535,11.811,38.977,0,55.512c-3.544,5.906-9.449,10.631-14.174,12.993
		C-2455.257,1048.959-2481.241,1061.952-2491.872,1092.661z M-2456.438,1154.077c-27.166-28.347-10.63-57.874-9.449-59.056
		c30.488-51.595,74.629-24.582,83.858-15.353c27.165,29.527,10.63,57.874,9.448,59.054
		C-2377.306,1150.534-2412.738,1193.053-2456.438,1154.077z M-2226.124,1372.582l-38.977-38.977
		c-30.71-30.709-70.866-50.788-113.386-56.692c-12.991-1.182-23.622-8.268-31.889-18.898c-11.811-16.535-11.811-38.975,0-55.51
		c3.543-5.906,9.449-10.631,14.173-12.994c38.976-18.896,42.52-36.613,47.243-46.062c3.544-5.905,8.268-10.63,12.992-15.354
		c8.267-5.906,29.528-16.536,55.512,0c10.63,8.268,17.717,18.896,18.897,31.889c5.905,42.521,25.984,81.497,56.692,113.387
		l38.977,38.976L-2226.124,1372.582z"/>
</g>
<g>
	<path fill="#777777" d="M-2139.767,1302.452l-47.245-47.244c-27.164-27.165-44.881-62.598-49.605-99.212
		c-2.361-18.897-12.992-35.433-28.346-47.244c-22.442-16.535-55.513-17.715-79.135-2.362c-2.361-15.353-9.448-30.708-21.26-42.519
		c-11.811-11.811-25.983-18.897-42.52-21.26c15.355-23.623,14.174-55.512-2.361-79.135c-11.812-15.354-28.347-25.984-47.245-28.346
		c-36.614-4.724-72.048-22.44-99.213-49.605l-47.244-47.245c-4.725-4.725-11.812-4.725-16.536,0l-79.134,76.771
		c-2.361,1.182-3.543,4.725-3.543,8.268c0,3.544,1.182,5.906,3.543,8.268l47.245,47.244c27.166,27.166,44.881,62.6,49.606,99.214
		c2.362,18.897,12.991,35.432,28.347,47.244c11.811,8.268,27.165,12.991,41.338,12.991l0,0c12.992,0,25.985-3.543,37.796-10.629
		c2.361,15.354,9.449,30.708,21.26,42.52c11.811,11.811,25.984,18.898,42.52,21.26c-15.354,23.622-14.173,55.513,2.362,79.133
		c11.812,15.355,28.346,25.984,47.245,28.347c36.613,4.725,72.046,22.44,99.212,49.606l47.244,47.245
		c2.362,2.361,4.724,3.543,8.268,3.543s5.905-1.182,8.268-3.543l77.952-77.954
		C-2135.043,1315.444-2135.043,1307.176-2139.767,1302.452z M-2491.737,1092.215c-3.543,5.906-8.268,10.629-12.99,15.354
		c-15.356,11.812-38.978,11.812-55.513,0c-10.63-8.268-17.717-18.897-18.898-31.889c-5.905-42.52-25.984-81.496-56.692-113.387
		l-38.976-38.976l60.236-60.236l38.977,38.977c30.708,30.708,70.867,50.787,113.387,56.692c12.992,1.182,23.621,8.268,31.89,18.897
		c11.811,16.537,11.811,38.977,0,55.513c-3.544,5.905-9.449,10.63-14.173,12.992
		C-2455.122,1048.515-2481.106,1061.506-2491.737,1092.215z M-2456.303,1153.633c-27.166-28.347-10.629-57.875-9.449-59.056
		c30.489-51.595,74.63-24.583,83.859-15.354c27.164,29.528,10.629,57.875,9.448,59.054
		C-2377.17,1150.09-2412.602,1192.609-2456.303,1153.633z M-2225.988,1372.138l-38.977-38.978
		c-30.709-30.709-70.867-50.787-113.386-56.693c-12.992-1.181-23.622-8.268-31.889-18.897c-11.812-16.535-11.812-38.975,0-55.511
		c3.543-5.906,9.449-10.631,14.172-12.992c38.977-18.898,42.52-36.614,47.244-46.063c3.543-5.905,8.268-10.63,12.992-15.354
		c8.267-5.905,29.527-16.535,55.511,0c10.63,8.268,17.717,18.897,18.897,31.891c5.906,42.52,25.984,81.496,56.693,113.385
		l38.977,38.977L-2225.988,1372.138z"/>
</g>
<path fill="#FFFFFF" d="M-2491.737,1092.215c-3.543,5.906-8.268,10.629-12.99,15.354c-15.356,11.812-38.978,11.812-55.513,0
	c-10.63-8.268-17.717-18.897-18.897-31.889c-5.905-42.52-25.985-81.496-56.693-113.387l-38.976-38.976l60.236-60.236l38.977,38.977
	c30.708,30.708,70.867,50.787,113.387,56.692c12.992,1.182,23.622,8.268,31.89,18.897c11.811,16.537,11.811,38.977,0,55.513
	c-3.544,5.905-9.448,10.63-14.173,12.992C-2455.122,1048.515-2481.106,1061.506-2491.737,1092.215z"/>
<path fill="#FFFFFF" d="M-2225.988,1372.138l-38.977-38.978c-30.709-30.709-70.867-50.787-113.386-56.693
	c-12.992-1.181-23.622-8.268-31.889-18.897c-11.812-16.535-11.812-38.975,0-55.511c3.543-5.906,9.449-10.631,14.172-12.992
	c38.977-18.898,42.52-36.614,47.244-46.063c3.543-5.905,8.268-10.63,12.992-15.354c8.267-5.905,29.527-16.535,55.511,0
	c10.63,8.268,17.717,18.897,18.897,31.891c5.906,42.52,25.984,81.496,56.693,113.385l38.977,38.977L-2225.988,1372.138z"/>
<text transform="matrix(1 0 0 1 642.1753 1285.2852)" font-family="'MyriadPro-Regular'" font-size="12">ModExo</text>
<text transform="matrix(1 0 0 1 -2086.9883 1280.6162)" fill="#777777" font-family="'MyanmarMN'" font-size="500">ModExo</text>
</svg>
